<?xml version="1.0" encoding="UTF-8"?>
<svg xmlns="http://www.w3.org/2000/svg" width="1200" height="560" viewBox="0 0 1200 560" role="img" aria-labelledby="title desc">
  <title id="title">QA Pipeline</title>
  <desc id="desc">Kalp Shah Manual QA Engineer profile visual.</desc>
  <defs>
    <linearGradient id="bg" x1="0" y1="0" x2="1" y2="1">
      <stop offset="0" stop-color="#0b1020"/><stop offset="1" stop-color="#151b2e"/>
    </linearGradient>
    <linearGradient id="accent" x1="0" y1="0" x2="1" y2="0">
      <stop offset="0" stop-color="#58a6ff"/><stop offset="1" stop-color="#a371f7"/>
    </linearGradient>
    <filter id="glow"><feGaussianBlur stdDeviation="5" result="b"/><feMerge><feMergeNode in="b"/><feMergeNode in="SourceGraphic"/></feMerge></filter>
  </defs>
  
  <rect width="720" height="980" rx="28" fill="url(#bg)"/>
  <text x="42" y="58" fill="#f0f6fc" font-family="Arial,sans-serif" font-size="26" font-weight="700">QA PIPELINE</text>
  <g transform="translate(42 105)"><circle cx="55" cy="42" r="35" fill="#0d1117" stroke="#58a6ff" stroke-width="4"/><text x="55" y="47" text-anchor="middle" fill="#f0f6fc" font-family="Arial,sans-serif" font-size="11" font-weight="700">TEST</text><rect x="120" y="20" width="540" height="44" rx="10" fill="#161b22" stroke="#30363d"/><text x="142" y="48" fill="#c9d1d9" font-family="monospace" font-size="14">Test scope</text></g><g transform="translate(42 217)"><circle cx="55" cy="42" r="35" fill="#0d1117" stroke="#58a6ff" stroke-width="4"/><text x="55" y="47" text-anchor="middle" fill="#f0f6fc" font-family="Arial,sans-serif" font-size="11" font-weight="700">FIND</text><rect x="120" y="20" width="540" height="44" rx="10" fill="#161b22" stroke="#30363d"/><text x="142" y="48" fill="#c9d1d9" font-family="monospace" font-size="14">Identify defect</text></g><g transform="translate(42 329)"><circle cx="55" cy="42" r="35" fill="#0d1117" stroke="#58a6ff" stroke-width="4"/><text x="55" y="47" text-anchor="middle" fill="#f0f6fc" font-family="Arial,sans-serif" font-size="11" font-weight="700">REPRODUCE</text><rect x="120" y="20" width="540" height="44" rx="10" fill="#161b22" stroke="#30363d"/><text x="142" y="48" fill="#c9d1d9" font-family="monospace" font-size="14">Reproduce consistently</text></g><g transform="translate(42 441)"><circle cx="55" cy="42" r="35" fill="#0d1117" stroke="#58a6ff" stroke-width="4"/><text x="55" y="47" text-anchor="middle" fill="#f0f6fc" font-family="Arial,sans-serif" font-size="11" font-weight="700">REPORT</text><rect x="120" y="20" width="540" height="44" rx="10" fill="#161b22" stroke="#30363d"/><text x="142" y="48" fill="#c9d1d9" font-family="monospace" font-size="14">Document evidence</text></g><g transform="translate(42 553)"><circle cx="55" cy="42" r="35" fill="#0d1117" stroke="#58a6ff" stroke-width="4"/><text x="55" y="47" text-anchor="middle" fill="#f0f6fc" font-family="Arial,sans-serif" font-size="11" font-weight="700">FIX</text><rect x="120" y="20" width="540" height="44" rx="10" fill="#161b22" stroke="#30363d"/><text x="142" y="48" fill="#c9d1d9" font-family="monospace" font-size="14">Developer fix</text></g><g transform="translate(42 665)"><circle cx="55" cy="42" r="35" fill="#0d1117" stroke="#58a6ff" stroke-width="4"/><text x="55" y="47" text-anchor="middle" fill="#f0f6fc" font-family="Arial,sans-serif" font-size="11" font-weight="700">RETEST</text><rect x="120" y="20" width="540" height="44" rx="10" fill="#161b22" stroke="#30363d"/><text x="142" y="48" fill="#c9d1d9" font-family="monospace" font-size="14">Regression retest</text></g><g transform="translate(42 777)"><circle cx="55" cy="42" r="35" fill="#0d1117" stroke="#3fb950" stroke-width="4"/><text x="55" y="47" text-anchor="middle" fill="#f0f6fc" font-family="Arial,sans-serif" font-size="11" font-weight="700">VERIFY</text><rect x="120" y="20" width="540" height="44" rx="10" fill="#161b22" stroke="#30363d"/><text x="142" y="48" fill="#c9d1d9" font-family="monospace" font-size="14">Verify closure</text></g>

</svg>